:SAMPLES-PER-SECOND 30
:FRAME-RANGE 1-1770
:FULLY-SPECIFIED
:DEGREES
886
root  31.7052 37.7707 -13.5109 1.5387 24.3056 0.790558
RightUpLeg  -28.3057 -3.72659 -5.38336
RightLeg  26.841 -3.1054 -1.94215
RightFoot  -0.150746 -0.79968 8.13856
RightToes  6.35937e-011 1.2921e-014 -6.02303e-014
Spine  15.2783 -1.11412 0.863811
Spine1  -3.36874 -1.32269 0.802725
HEad  -7.87139 -0.814574 -2.5745
LeftShoulder1  2.51814 -5.76382 -20.7747
LeftArm  -2.07486 -58.819 -36.0895
LeftForeArm  16.1347 -21.0389 -5.27269
LeftHand  -0.516946 0.750013 12.9468
RightShoulder  11.1849 31.0465 25.8809
RightArm  -23.0533 33.2851 11.9451
RightForeArm  33.0841 45.154 8.94452
RightHand  -0.958988 2.16808 -14.8646
LeftUpLeg  -22.6063 4.87259 -2.10079
LeftLeg  44.8955 -0.561196 -0.191253
LeftFoot  -13.233 -0.00353983 -5.01335
LeftToes  3.18074e-010 1.39432e-010 -7.71186e-011
887
root  31.4892 37.0115 -12.5318 0.813965 26.464 -0.901947
RightUpLeg  -31.1755 -5.85868 -2.84006
RightLeg  35.4829 -2.94558 -2.52395
RightFoot  -4.71859 -0.424714 6.77613
RightToes  6.35937e-011 1.2921e-014 -6.02303e-014
Spine  16.2975 -1.23758 2.30307
Spine1  -3.68304 -1.47298 1.7518
HEad  -10.113 -1.74952 -2.36014
LeftShoulder1  2.42077 -6.02895 -18.8682
LeftArm  -7.7589 -63.1264 -33.6673
LeftForeArm  16.3377 -19.8167 -6.12781
LeftHand  -0.447237 1.27856 12.586
RightShoulder  10.3555 31.9279 22.5654
RightArm  -27.5104 35.0801 9.82613
RightForeArm  33.4063 43.2086 8.26199
RightHand  -0.978607 2.06453 -15.3638
LeftUpLeg  -29.2955 4.506 0.525837
LeftLeg  57.1921 0.290758 1.0125
LeftFoot  -7.78169 0.378271 -10.6529
LeftToes  3.18074e-010 1.39432e-010 -7.71186e-011
888
root  31.3064 36.3303 -11.5422 0.263611 28.2247 -1.95653
RightUpLeg  -33.1253 -8.02407 -0.889467
RightLeg  42.4092 -2.5091 -2.7665
RightFoot  -9.26356 -0.16992 5.89148
RightToes  6.35937e-011 1.2921e-014 -6.02303e-014
Spine  17.1835 -1.21255 3.13168
Spine1  -3.82478 -1.51214 2.23031
HEad  -12.4612 -2.79993 -1.34504
LeftShoulder1  2.21537 -6.18099 -16.1372
LeftArm  -11.5855 -66.4974 -32.0303
LeftForeArm  16.6673 -20.1094 -5.8119
LeftHand  -0.456226 1.20054 12.6089
RightShoulder  9.66045 32.8607 19.7184
RightArm  -33.6608 35.9615 7.07352
RightForeArm  34.9301 40.9283 7.44725
RightHand  -1.00057 2.28294 -15.2717
LeftUpLeg  -33.8426 4.22729 1.99251
LeftLeg  63.5627 -0.834579 -1.19723
LeftFoot  -6.27787 0.409965 -8.41169
LeftToes  3.18074e-010 1.39432e-010 -7.71186e-011
889
root  31.1428 35.8648 -10.5722 0.867126 29.2393 -1.06802
RightUpLeg  -34.6134 -8.5323 -0.833149
RightLeg  47.7182 -2.83006 -3.68235
RightFoot  -12.6521 -0.0268351 5.15771
RightToes  6.35937e-011 1.2921e-014 -6.02303e-014
Spine  17.9705 -0.637312 1.66529
Spine1  -4.28179 -1.11121 2.07244
HEad  -14.2008 -4.21413 -0.532251
LeftShoulder1  2.08471 -6.28117 -14.4204
LeftArm  -13.3219 -68.1666 -30.8672
LeftForeArm  16.2678 -22.7141 -4.31566
LeftHand  -0.282987 3.45484 16.5483
RightShoulder  9.00454 33.0781 17.6281
RightArm  -39.7408 35.9032 5.12952
RightForeArm  35.7507 40.5638 7.28702
RightHand  -1.30252 1.61912 -21.5436
LeftUpLeg  -36.1968 4.1572 1.17499
LeftLeg  63.4489 -3.91674 -7.87751
LeftFoot  -9.03255 0.290689 -11.7157
LeftToes  3.18074e-010 1.39432e-010 -7.71186e-011
890
root  31.0379 35.671 -9.70585 1.48572 29.7655 -0.670578
RightUpLeg  -34.949 -7.4436 -0.516326
RightLeg  50.2632 -3.76337 -5.21295
RightFoot  -15.0049 0.0585576 5.01034
RightToes  6.35937e-011 1.2921e-014 -6.02303e-014
Spine  18.3964 -0.486448 1.4507
Spine1  -4.25605 -0.719049 0.5104
HEad  -16.2513 -5.08399 -0.17706
LeftShoulder1  1.95784 -5.84757 -14.0147
LeftArm  -23.1986 -68.0271 -25.9762
LeftForeArm  20.5669 -27.7839 -4.87907
LeftHand  -0.224781 3.79565 15.752
RightShoulder  9.12191 32.952 18.0684
RightArm  -44.9967 34.2793 2.95804
RightForeArm  39.0704 46.6044 9.05281
RightHand  -1.15507 1.45682 -19.6036
LeftUpLeg  -36.504 4.22302 -0.320533
LeftLeg  58.0862 -4.7947 -7.73466
LeftFoot  -12.2504 0.0393959 -4.28522
LeftToes  3.18074e-010 1.39432e-010 -7.71186e-011
891
root  31.0102 35.576 -9.01266 1.72058 30.4189 -1.01978
RightUpLeg  -34.8459 -6.46354 0.362772
RightLeg  51.6191 -4.97292 -7.08399
RightFoot  -16.555 0.119352 5.08423
RightToes  6.35937e-011 1.2921e-014 -6.02303e-014
Spine  18.9206 -0.514132 1.41409
Spine1  -4.76559 -0.729994 0.600494
HEad  -16.6122 -5.32152 -0.410609
LeftShoulder1  1.84719 -5.25301 -14.187
LeftArm  -28.2054 -66.4046 -21.3852
LeftForeArm  21.6439 -32.2403 -5.87356
LeftHand  -0.198924 3.94102 15.2007
RightShoulder  8.97893 32.1998 18.2291
RightArm  -46.5518 33.953 1.92776
RightForeArm  37.5227 49.7175 10.374
RightHand  -1.2717 1.87957 -20.3224
LeftUpLeg  -35.86 4.05429 -0.557507
LeftLeg  56.1437 -2.35939 -3.27665
LeftFoot  -14.9265 0.0457927 -1.3968
LeftToes  3.18074e-010 1.39432e-010 -7.71186e-011
892
root  30.8446 35.7947 -8.57976 2.54449 30.4888 -1.21138
RightUpLeg  -34.6266 -4.72356 1.1239
RightLeg  50.5147 -6.29262 -8.48892
RightFoot  -16.465 0.117614 5.12123
RightToes  6.35937e-011 1.2921e-014 -6.02303e-014
Spine  19.1597 -0.261092 0.340753
Spine1  -5.43959 -0.77969 1.67805
HEad  -16.5663 -5.15901 -1.16163
LeftShoulder1  1.67291 -4.66643 -13.5051
LeftArm  -28.8501 -63.5605 -17.7883
LeftForeArm  21.9653 -35.5252 -6.70392
LeftHand  -0.199337 3.87334 14.5342
RightShoulder  8.73477 31.2774 18.2213
RightArm  -46.2736 32.7732 2.16273
RightForeArm  38.1105 52.8711 11.7436
RightHand  -1.16162 1.51154 -19.5616
LeftUpLeg  -35.1736 3.75278 0.233085
LeftLeg  54.1558 -2.2757 -2.89918
LeftFoot  -15.3782 0.0608771 -0.889606
LeftToes  3.18074e-010 1.39432e-010 -7.71186e-011
893
root  30.6174 36.4412 -8.31149 3.56714 30.0523 -2.21559
RightUpLeg  -33.6543 -2.76707 2.64673
RightLeg  45.922 -8.1283 -9.21057
RightFoot  -14.2354 0.0162573 4.4632
RightToes  6.35937e-011 1.2921e-014 -6.02303e-014
Spine  18.6821 0.0716911 0.0991979
Spine1  -5.29766 -0.577365 2.11092
HEad  -17.0423 -5.14542 -0.757435
LeftShoulder1  1.4601 -4.13686 -11.9956
LeftArm  -26.7931 -60.8981 -16.5006
LeftForeArm  20.6127 -37.546 -7.34794
LeftHand  -0.145588 4.31181 14.5191
RightShoulder  8.74629 29.6703 19.6092
RightArm  -44.8223 31.4427 1.94312
RightForeArm  37.0452 55.1407 13.0025
RightHand  -1.17865 1.8486 -18.951
LeftUpLeg  -34.4652 4.41648 1.66877
LeftLeg  50.0198 -2.53011 -2.78932
LeftFoot  -13.8418 0.0552336 -1.27303
LeftToes  3.18074e-010 1.39432e-010 -7.71186e-011
894
root  30.3189 37.396 -8.23959 4.58704 29.1426 -3.22484
RightUpLeg  -31.3535 -1.73313 4.10923
RightLeg  37.8808 -9.24234 -7.90557
RightFoot  -10.489 -0.0976882 3.56163
RightToes  6.35937e-011 1.2921e-014 -6.02303e-014
Spine  18.0087 0.33752 -0.400284
Spine1  -5.28849 -0.522839 2.79756
HEad  -17.112 -3.96179 -1.03176
LeftShoulder1  1.38918 -3.82579 -11.8213
LeftArm  -24.0036 -57.108 -17.1871
LeftForeArm  20.9733 -39.6875 -7.95846
LeftHand  -0.147165 4.30357 14.5854
RightShoulder  9.15251 28.5535 21.9647
RightArm  -42.6839 30.9972 2.64081
RightForeArm  35.2157 54.9282 13.0463
RightHand  -1.1279 1.40844 -19.285
LeftUpLeg  -32.6324 6.62575 2.77777
LeftLeg  43.1344 -3.51431 -3.12853
LeftFoot  -10.7246 0.0696322 -0.977774
LeftToes  3.18074e-010 1.39432e-010 -7.71186e-011
895
root  30.0263 38.4342 -8.27804 5.72009 27.3755 -3.80339
RightUpLeg  -27.8127 -2.94471 5.38582
RightLeg  27.0811 -7.21833 -4.22639
RightFoot  -5.98791 -0.153102 2.40326
RightToes  6.35937e-011 1.2921e-014 -6.02303e-014
Spine  16.513 0.332234 -0.440462
Spine1  -5.04266 -0.416722 2.1426
HEad  -16.3681 -2.34255 -0.83463
LeftShoulder1  1.45348 -3.59947 -13.4862
LeftArm  -21.7101 -51.8163 -17.3434
LeftForeArm  22.1417 -42.1306 -8.65671
LeftHand  -0.0596445 5.03696 15.8393
RightShoulder  10.0457 28.7915 24.6413
RightArm  -39.2827 30.3357 3.90614
RightForeArm  33.5752 53.2785 12.3196
RightHand  -1.12378 0.937784 -20.5915
LeftUpLeg  -29.7154 9.03932 3.48262
LeftLeg  34.4428 -4.68661 -3.09657
LeftFoot  -6.91086 0.0994215 -1.49684
LeftToes  3.18074e-010 1.39432e-010 -7.71186e-011
896
root  29.7182 39.2095 -8.35282 6.28229 24.8546 -4.1416
RightUpLeg  -23.0417 -3.13077 5.14434
RightLeg  16.6891 -4.62807 -0.491853
RightFoot  -4.54 -0.429882 6.70522
RightToes  6.35937e-011 1.2921e-014 -6.02303e-014
Spine  14.6802 0.513595 0.0544224
Spine1  -4.59254 0.121468 0.717767
HEad  -15.3019 -1.12442 -1.02527
LeftShoulder1  1.55334 -3.03289 -17.0922
LeftArm  -20.2964 -45.8389 -14.7948
LeftForeArm  23.9999 -45.8748 -9.84488
LeftHand  -0.0337163 5.23075 16.0163
RightShoulder  10.5346 29.0499 25.9379
RightArm  -34.5141 30.4963 5.26039
RightForeArm  33.4592 51.7688 11.5952
RightHand  -1.30165 1.45447 -22.0273
LeftUpLeg  -26.4529 11.8016 4.04837
LeftLeg  26.7033 -5.48405 -2.6595
LeftFoot  -3.76964 0.215594 -2.91587
LeftToes  3.18074e-010 1.39432e-010 -7.71186e-011
897
root  29.3276 39.7331 -8.53169 5.66138 22.0923 -4.07803
RightUpLeg  -18.2198 -0.862217 3.83924
RightLeg  12.1276 -9.81638 -0.543104
RightFoot  -5.5601 -0.447215 8.09254
RightToes  6.35937e-011 1.2921e-014 -6.02303e-014
Spine  13.094 0.866655 1.452
Spine1  -4.21101 1.11359 -1.83377
HEad  -13.3754 -0.751283 -0.404949
LeftShoulder1  1.4512 -2.17447 -19.0252
LeftArm  -20.3934 -41.1233 -12.4152
LeftForeArm  22.5478 -48.5413 -11.0156
LeftHand  0.0204289 5.63851 15.6514
RightShoulder  10.6023 29.8072 25.3596
RightArm  -30.6013 31.3863 6.6355
RightForeArm  33.6691 51.0221 11.2354
RightHand  -1.31061 1.49884 -22.0371
LeftUpLeg  -22.6702 15.0628 4.41653
LeftLeg  20.4967 -6.30006 -2.27519
LeftFoot  -0.65132 0.346363 -3.66053
LeftToes  3.18074e-010 1.39432e-010 -7.71186e-011
898
root  28.8416 39.9244 -8.84015 4.51306 19.5459 -3.37044
RightUpLeg  -14.4419 -3.24653 2.67067
RightLeg  13.9854 -9.98082 -1.62078
RightFoot  -8.01021 -0.297362 8.33553
RightToes  6.35937e-011 1.2921e-014 -6.02303e-014
Spine  12.1772 1.46136 3.51452
Spine1  -5.20196 2.39113 -4.8717
HEad  -8.93874 -1.02097 -0.184409
LeftShoulder1  1.2856 -1.47153 -19.3235
LeftArm  -22.4201 -37.3718 -11.504
LeftForeArm  21.7651 -48.931 -11.2424
LeftHand  -0.00603206 5.4487 14.84
RightShoulder  10.5393 31.5612 23.4495
RightArm  -29.263 32.3711 6.9946
RightForeArm  34.1185 48.9322 10.3035
RightHand  -1.31923 2.27222 -20.0218
LeftUpLeg  -19.521 17.8437 4.53561
LeftLeg  16.777 -6.85613 -2.074
LeftFoot  1.37017 0.441157 -4.0352
LeftToes  3.18074e-010 1.39432e-010 -7.71186e-011
